<?xml version="1.0" standalone="no"?>
<!DOCTYPE svg PUBLIC "-//W3C//DTD SVG 20010904//EN"
 "http://www.w3.org/TR/2001/REC-SVG-20010904/DTD/svg10.dtd">
<svg version="1.0" xmlns="http://www.w3.org/2000/svg"
 width="207.000000pt" height="128.000000pt" viewBox="0 0 207.000000 128.000000"
 preserveAspectRatio="xMidYMid meet">

<g transform="translate(0.000000,128.000000) scale(0.100000,-0.100000)"
fill="currentColor" stroke="none">
<path d="M0 1266 c0 -8 26 -56 59 -107 l59 -94 320 -5 c305 -5 322 -6 349 -26
40 -30 70 -78 78 -125 10 -57 -30 -137 -83 -166 -35 -20 -54 -22 -240 -24
-111 -1 -202 -4 -202 -6 0 -3 99 -164 221 -359 l221 -354 155 0 c120 0 153 3
147 13 -4 6 -72 111 -152 232 -79 121 -146 225 -149 232 -3 7 7 17 23 23 157
59 249 161 280 311 12 60 13 86 4 138 -23 130 -104 242 -217 298 l-58 28 -407
3 c-349 2 -408 1 -408 -12z"/>
<path d="M1433 1259 c-49 -24 -109 -87 -129 -135 -29 -69 -55 -64 376 -64
l390 0 0 110 0 110 -297 0 c-282 0 -300 -1 -340 -21z"/>
<path d="M1547 769 c-129 -44 -213 -128 -256 -257 -37 -109 -20 -240 43 -340
34 -54 110 -120 169 -148 51 -23 58 -24 310 -24 l257 0 0 109 0 110 -232 3
c-226 3 -234 4 -266 26 -41 30 -72 90 -72 140 0 55 38 122 86 149 37 22 50 23
262 23 l222 0 0 115 0 115 -232 0 c-207 -1 -240 -3 -291 -21z"/>
</g>
</svg>
